<svg width="64" height="64" viewBox="0 0 64 64" xmlns="http://www.w3.org/2000/svg">
  <!-- Background -->
  <rect width="64" height="64" rx="12" fill="#faba40"/>
  
  <!-- Calendar page -->
  <rect x="12" y="16" width="40" height="36" rx="3" fill="#FFFFFF"/>
  
  <!-- Calendar header -->
  <rect x="12" y="16" width="40" height="8" rx="3" fill="#1a2b3c"/>
  <rect x="12" y="21" width="40" height="3" fill="#1a2b3c"/>
  
  <!-- Binding rings -->
  <circle cx="20" cy="18" r="2" fill="#FFFFFF"/>
  <circle cx="32" cy="18" r="2" fill="#FFFFFF"/>
  <circle cx="44" cy="18" r="2" fill="#FFFFFF"/>
  
  <!-- Calendar grid (simplified) -->
  <line x1="12" y1="30" x2="52" y2="30" stroke="#E5E7EB" stroke-width="1"/>
  <line x1="12" y1="38" x2="52" y2="38" stroke="#E5E7EB" stroke-width="1"/>
  <line x1="12" y1="46" x2="52" y2="46" stroke="#E5E7EB" stroke-width="1"/>
  
  <line x1="22" y1="24" x2="22" y2="52" stroke="#E5E7EB" stroke-width="1"/>
  <line x1="32" y1="24" x2="32" y2="52" stroke="#E5E7EB" stroke-width="1"/>
  <line x1="42" y1="24" x2="42" y2="52" stroke="#E5E7EB" stroke-width="1"/>
  
  <!-- Important date markers -->
  <circle cx="17" cy="27" r="2" fill="#EF4444"/>
  <circle cx="37" cy="35" r="2" fill="#F59E0B"/>
  <circle cx="27" cy="43" r="2" fill="#10B981"/>
  
  <!-- Pencil icon (study element) -->
  <path d="M 48 42 L 54 48 L 52 50 L 46 44 Z" fill="#F59E0B"/>
  <path d="M 46 44 L 52 50 L 50 52 L 44 46 Z" fill="#FBBF24"/>
  <rect x="42" y="38" width="6" height="8" rx="1" transform="rotate(45 45 42)" fill="#1a2b3c"/>
  <circle cx="48" cy="42" r="1.5" fill="#FFFFFF"/>
</svg>