<svg version="1.1" viewBox="0.0 0.0 1000.0 1000.0" fill="none" stroke="none" stroke-linecap="square" stroke-miterlimit="10" xmlns:xlink="http://www.w3.org/1999/xlink" xmlns="http://www.w3.org/2000/svg"><clipPath id="g3e6a264d981_0_5.0"><path d="m0 0l1000.0 0l0 1000.0l-1000.0 0l0 -1000.0z" clip-rule="nonzero"/></clipPath><g clip-path="url(#g3e6a264d981_0_5.0)"><path fill="#000000" d="m0 0l1000.0 0l0 1000.0l-1000.0 0z" fill-rule="evenodd"/><path fill="#000000" fill-opacity="0.0" d="m25.094488 394.2651l1000.0 0l0 633.4802l-1000.0 0z" fill-rule="evenodd"/><path fill="#ffffff" d="m129.34448 893.712q-35.968742 0 -57.765617 -22.546875q-21.78125 -22.546875 -24.8125 -59.53125l45.09375 -13.671875q4.046875 27.859375 13.671875 41.796875q9.625 13.9375 28.374992 13.9375q14.6875 0 22.28125 -8.359375q7.609375 -8.359375 7.609375 -22.546875q0 -12.671875 -5.578125 -22.796875q-5.5625 -10.140625 -18.234375 -20.78125l-50.156242 -43.0625q-15.203125 -13.171875 -25.59375 -29.375q-10.375 -16.21875 -10.375 -42.0625q0 -23.3125 9.359375 -39.265625q9.375 -15.96875 26.34375 -24.328125q16.984375 -8.359375 39.781242 -8.359375q36.484375 0 55.734375 22.546875q19.25 22.546875 22.296875 54.46875l-38.515625 13.6875q-2.015625 -15.203125 -6.078125 -26.59375q-4.046875 -11.40625 -11.65625 -17.734375q-7.59375 -6.34375 -19.75 -6.34375q-13.171867 0 -21.031242 8.875q-7.84375 8.859375 -7.84375 21.015625q0 7.609375 3.28125 14.953125q3.296875 7.34375 11.40625 14.4375l51.671867 47.625q10.640625 9.625 20.015625 20.78125q9.375 11.140625 15.453125 25.328125q6.078125 14.1875 6.078125 32.921875q0 24.828125 -10.140625 41.546875q-10.125 16.71875 -28.359375 25.078125q-18.234375 8.359375 -42.5625 8.359375zm163.64566 0q-17.21875 0 -26.84375 -9.109375q-9.625 -9.125 -13.4375 -22.796875q-3.796875 -13.6875 -3.796875 -27.875l0 -237.10938l54.21875 0l0 220.90625q0 15.703125 4.5625 24.578125q4.5625 8.859375 18.734375 8.859375q9.125 0 19.0 -5.3125q9.890625 -5.328125 19.0 -12.9375l0 -236.09375l54.21875 0l0 292.84375l-54.21875 0l0 -28.875q-14.1875 13.671875 -32.171875 23.296875q-17.984375 9.625 -39.265625 9.625zm184.42871 -4.046875l0 -292.84375l54.21878 0l0 292.84375l-54.21878 0zm0 -336.42188l0 -56.75l54.21878 0l0 56.75l-54.21878 0zm190.50864 340.46875q-22.8125 0 -36.75 -8.609375q-13.921875 -8.609375 -20.265625 -24.3125q-6.328125 -15.703125 -6.328125 -36.984375l0 -191.01562l-30.90625 0l0 -35.96875l30.90625 0l0 -85.625l54.21875 0l0 85.625l47.125 0l0 35.96875l-47.125 0l0 187.46875q0 17.21875 5.5625 24.5625q5.578125 7.34375 21.296875 7.34375q4.046875 0 9.359375 -0.5q5.328125 -0.5 10.390625 -1.015625l0 40.03125q-10.125 1.515625 -18.75 2.265625q-8.609375 0.765625 -18.734375 0.765625zm159.08136 0q-34.453125 0 -53.203125 -13.421875q-18.734375 -13.421875 -26.09375 -39.515625q-7.34375 -26.09375 -7.34375 -64.09375l0 -66.875q0 -39.015625 7.59375 -64.84375q7.609375 -25.84375 26.609375 -39.015625q19.0 -13.1875 52.4375 -13.1875q36.984375 0 54.46875 15.203125q17.484375 15.203125 23.046875 43.828125q5.578125 28.625 5.578125 68.65625l0 23.8125l-115.515625 0l0 58.765625q0 17.734375 3.28125 28.890625q3.296875 11.140625 10.640625 16.46875q7.359375 5.3125 19.015625 5.3125q12.15625 0 18.484375 -5.828125q6.328125 -5.828125 8.609375 -16.71875q2.28125 -10.890625 2.28125 -25.59375l0 -17.734375l52.703125 0l0 11.15625q0 44.078125 -18.75 69.40625q-18.75 25.328125 -63.84375 25.328125zm-32.421875 -178.84375l62.3125 0l0 -26.34375q0 -18.234375 -2.03125 -30.640625q-2.015625 -12.421875 -8.359375 -18.75q-6.328125 -6.34375 -20.0 -6.34375q-13.171875 0 -20.015625 6.078125q-6.84375 6.078125 -9.375 20.53125q-2.53125 14.4375 -2.53125 39.765625l0 15.703125z" fill-rule="nonzero"/><path fill="#000000" fill-opacity="0.0" d="m-68.35492 269.44623l769.7953 -568.5354l323.6535 438.2677l-769.7952 568.5354z" fill-rule="evenodd"/><path fill="#595959" d="m155.43996 213.67674l143.21355 193.92921l21.077728 -15.567047l37.360474 50.59079l-21.077728 15.567047l38.576416 52.237335l-74.0423 54.684204l-38.576416 -52.237305l-87.981 64.9787l-37.36046 -50.59076l-79.25137 -241.16873l98.06111 -72.42345zm69.17125 248.61345l-93.266556 -126.29468l60.638184 150.39252l32.628372 -24.09784zm128.9672 -394.9494l35.058502 47.473625l-91.82703 67.81923l37.221252 50.402237q2.2132568 -33.063416 29.336548 -53.09543q30.61737 -22.612595 58.93878 -17.0345q28.324707 5.5562286 64.329956 54.31192l31.262146 42.332855q23.288757 31.53595 31.156921 48.529266q7.8806763 16.984009 7.2493286 36.855316q-0.6187134 19.86203 -13.364807 39.609528q-12.746155 19.747498 -38.235474 38.572784q-28.581268 21.108795 -57.77054 27.243622q-29.185974 6.112976 -52.98047 -6.907074q-23.78189 -13.029297 -54.3757 -54.457184l-11.908936 -16.12619l74.05487 -54.693542l13.663239 18.50177q21.256012 28.783325 32.20569 39.40219q10.952942 10.596985 22.868073 1.7970276q5.492523 -4.056549 6.3149414 -10.044525q0.8224182 -5.987976 -1.8806458 -10.226868q-2.7030334 -4.238922 -25.209625 -35.478485l-43.4588 -58.848694q-12.317352 -16.67923 -20.26358 -20.153687q-7.946228 -3.4744568 -16.01535 2.4850159q-5.1280212 3.7873383 -6.32016 9.485062q-1.179596 5.6884613 0.4510498 10.000687q1.6306152 4.312256 11.246857 17.333893l-73.31329 54.145844l-107.33998 -151.87485l158.90623 -117.36085zm142.78241 -105.45253l219.15042 296.75732l-74.0423 54.684235l-117.4928 -159.10013q-25.451538 -34.46457 -32.2529 -40.20256q-6.788788 -5.7472763 -16.853027 -3.8308487q-10.060944 1.894577 -35.726257 20.849815l-7.3275757 5.411804l-25.581482 -34.64055q45.175903 -51.21592 46.49991 -107.70892l43.626007 -32.220165z" fill-rule="nonzero"/></g></svg>