<svg version="1.1" viewBox="0.0 0.0 1000.0 1000.0" fill="none" stroke="none" stroke-linecap="square" stroke-miterlimit="10" xmlns:xlink="http://www.w3.org/1999/xlink" xmlns="http://www.w3.org/2000/svg"><clipPath id="g3e6a264d981_0_5.0"><path d="m0 0l1000.0 0l0 1000.0l-1000.0 0l0 -1000.0z" clip-rule="nonzero"/></clipPath><g clip-path="url(#g3e6a264d981_0_5.0)"><path fill="#000000" d="m0 0l1000.0 0l0 1000.0l-1000.0 0z" fill-rule="evenodd"/><path fill="#000000" fill-opacity="0.0" d="m137.99475 175.6273l741.92126 0l0 528.6614l-741.92126 0z" fill-rule="evenodd"/><path fill="#ffffff" d="m234.026 408.6273l0 -30.796875l-75.59375 0l0 -27.0625l57.15625 -105.46875l38.03125 0l0 114.328125l25.203125 0l0 18.203125l-25.203125 0l0 30.796875l-19.59375 0zm-58.796875 -49.0l58.796875 0l0 -105.9375l-2.796875 0l-56.0 103.140625l0 2.796875zm188.76553 52.265625q-18.90625 0 -32.09375 -7.234375q-13.171875 -7.234375 -19.9375 -19.828125q-6.765625 -12.609375 -6.765625 -28.46875l0 -6.53125l19.59375 0l0 5.125q0 19.140625 10.84375 28.9375q10.859375 9.796875 28.359375 9.796875q12.59375 0 20.984375 -5.828125q8.40625 -5.828125 12.6094055 -15.28125q4.203125 -9.453125 4.203125 -20.421875l0 -1.390625q0 -9.578125 -4.203125 -17.390625q-4.2031555 -7.8125 -11.6719055 -12.46875q-7.453125 -4.671875 -17.265625 -4.671875q-9.796875 0 -16.09375 5.015625q-6.296875 5.015625 -7.703125 10.375l-36.859375 0l0 -86.328125l102.18753 0l0 18.203125l-83.06253 0l0 58.328125l2.796875 0q4.90625 -9.5625 14.8125 -16.671875q9.921875 -7.125 25.328125 -7.125q14.9375 0 26.484406 6.421875q11.546875 6.40625 18.1875 18.078125q6.65625 11.65625 6.65625 27.296875l0 4.203125q0 15.390625 -6.53125 28.578125q-6.53125 13.1875 -19.375 21.234375q-12.8281555 8.046875 -31.484406 8.046875zm85.15619 -3.265625l0 -18.203125l46.203125 0l0 -136.5l-2.796875 0l-26.84375 61.375l-19.359375 0l0 -1.40625l30.5625 -68.59375l38.03122 0l0 145.125l46.203125 0l0 18.203125l-111.99997 0z" fill-rule="nonzero"/><path fill="#ffffff" d="m220.26038 691.8929q-17.96875 0 -29.40625 -6.171875q-11.421875 -6.1875 -17.03125 -15.875q-5.59375 -9.6875 -6.296875 -19.953125l17.265625 -4.203125q1.171875 13.3125 10.390625 21.359375q9.21875 8.046875 24.140625 8.046875q12.84375 0 20.65625 -5.015625q7.8125 -5.015625 7.8125 -14.125q0 -9.796875 -7.703125 -13.984375q-7.703125 -4.203125 -24.96875 -5.375q-19.828125 -1.40625 -30.6875 -9.453125q-10.84375 -8.046875 -10.84375 -22.984375l0 -1.390625q0 -10.96875 6.0625 -18.3125q6.078125 -7.359375 15.640625 -11.09375q9.5625 -3.734375 20.296875 -3.734375q15.40625 0 25.546875 5.25q10.15625 5.25 15.515625 13.53125q5.375 8.28125 6.546875 17.15625l-17.265625 4.203125q-0.9375 -11.203125 -8.875 -17.5q-7.9375 -6.3125 -20.53125 -6.3125q-9.796875 0 -17.5 4.203125q-7.703125 4.203125 -7.703125 12.609375q0 8.390625 7.109375 12.828125q7.125 4.4375 26.03125 5.828125q20.0625 1.640625 30.796875 9.6875q10.734375 8.046875 10.734375 23.453125l0 1.390625q0 16.8125 -12.71875 26.375q-12.71875 9.5625 -33.015625 9.5625z" fill-rule="nonzero"/><path fill="#ffffff" d="m343.19778 691.42413q-16.40625 0 -26.8125 -10.796875q-10.390625 -10.796875 -10.390625 -32.0l0 -59.203125l15.59375 0l0 57.203125q0 15.59375 6.390625 22.796875q6.40625 7.203125 19.609375 7.203125q14.203125 0 22.296875 -9.703125q8.109375 -9.703125 8.109375 -25.890625l0 -51.609375l15.59375 0l0 99.203125l-15.59375 0l0 -18.0l-2.40625 0q-4.796875 9.59375 -12.59375 15.203125q-7.796875 5.59375 -19.796875 5.59375zm131.19693 -117.59375q-5.609375 0 -9.8125 -4.203125q-4.1875 -4.203125 -4.1875 -9.796875q0 -5.796875 4.1875 -9.890625q4.203125 -4.109375 9.8125 -4.109375q5.796875 0 9.890625 4.109375q4.109375 4.09375 4.109375 9.890625q0 5.59375 -4.109375 9.796875q-4.09375 4.203125 -9.890625 4.203125zm-42.40625 114.796875l0 -14.40625l34.796875 0l0 -70.390625l-31.1875 0l0 -14.40625l46.796875 0l0 84.796875l32.390625 0l0 14.40625l-82.796875 0zm163.1969 0q-6.796875 0 -11.09375 -4.390625q-4.296875 -4.40625 -4.296875 -11.203125l0 -69.203125l-31.203125 0l0 -14.40625l31.203125 0l0 -40.796875l15.59375 0l0 40.796875l38.40625 0l0 14.40625l-38.40625 0l0 64.390625q0 6.0 5.40625 6.0l28.203125 0l0 14.40625l-33.8125 0zm123.400024 2.796875q-14.1875 0 -25.09375 -6.5q-10.90625 -6.5 -17.109375 -18.0q-6.1875 -11.5 -6.1875 -26.703125l0 -4.796875q0 -14.0 6.390625 -25.0q6.40625 -11.0 17.5 -17.390625q11.109375 -6.40625 24.90625 -6.40625q12.203125 0 21.09375 4.40625q8.90625 4.390625 14.609375 11.203125q5.703125 6.796875 8.390625 14.5q2.703125 7.6875 2.703125 14.296875l0 12.796875l-80.0 0q0.609375 14.59375 9.296875 23.703125q8.703125 9.09375 23.90625 9.09375q14.203125 0 21.203125 -6.0q7.0 -6.0 9.59375 -14.40625l14.796875 4.0q-4.1875 13.8125 -15.5 22.515625q-11.296875 8.6875 -30.5 8.6875zm-32.390625 -62.0l64.0 0q-0.40625 -8.59375 -4.90625 -14.890625q-4.5 -6.3125 -11.5 -9.703125q-7.0 -3.40625 -14.796875 -3.40625q-13.203125 0 -22.203125 8.0q-9.0 8.0 -10.59375 20.0z" fill-rule="nonzero"/></g></svg>